<svg width="21" height="20" viewBox="0 0 21 20" fill="none" xmlns="http://www.w3.org/2000/svg">
<g id="camera" clip-path="url(#clip0_161_1616)">
<path id="Vector" fill-rule="evenodd" clip-rule="evenodd" d="M19.25 15V7.5C19.25 7.16848 19.1183 6.85054 18.8839 6.61612C18.6495 6.3817 18.3315 6.25 18 6.25H16.535C15.541 6.24946 14.5878 5.85425 13.885 5.15125L12.8475 4.11625C12.6137 3.88242 12.2969 3.75073 11.9663 3.75H9.035C8.70351 3.75007 8.38562 3.88181 8.15125 4.11625L7.11625 5.15125C6.41315 5.85456 5.45948 6.24979 4.465 6.25H3C2.66848 6.25 2.35054 6.3817 2.11612 6.61612C1.8817 6.85054 1.75 7.16848 1.75 7.5V15C1.75 15.3315 1.8817 15.6495 2.11612 15.8839C2.35054 16.1183 2.66848 16.25 3 16.25H18C18.3315 16.25 18.6495 16.1183 18.8839 15.8839C19.1183 15.6495 19.25 15.3315 19.25 15ZM3 5C2.33696 5 1.70107 5.26339 1.23223 5.73223C0.763392 6.20107 0.5 6.83696 0.5 7.5L0.5 15C0.5 15.663 0.763392 16.2989 1.23223 16.7678C1.70107 17.2366 2.33696 17.5 3 17.5H18C18.663 17.5 19.2989 17.2366 19.7678 16.7678C20.2366 16.2989 20.5 15.663 20.5 15V7.5C20.5 6.83696 20.2366 6.20107 19.7678 5.73223C19.2989 5.26339 18.663 5 18 5H16.535C15.872 4.99986 15.2362 4.73637 14.7675 4.2675L13.7325 3.2325C13.2638 2.76363 12.628 2.50014 11.965 2.5H9.035C8.37201 2.50014 7.73623 2.76363 7.2675 3.2325L6.2325 4.2675C5.76377 4.73637 5.12799 4.99986 4.465 5H3Z" fill="#5E6366"/>
<path id="Vector_2" fill-rule="evenodd" clip-rule="evenodd" d="M10.5 13.75C11.3288 13.75 12.1237 13.4208 12.7097 12.8347C13.2958 12.2487 13.625 11.4538 13.625 10.625C13.625 9.7962 13.2958 9.00134 12.7097 8.41529C12.1237 7.82924 11.3288 7.5 10.5 7.5C9.6712 7.5 8.87634 7.82924 8.29029 8.41529C7.70424 9.00134 7.375 9.7962 7.375 10.625C7.375 11.4538 7.70424 12.2487 8.29029 12.8347C8.87634 13.4208 9.6712 13.75 10.5 13.75ZM10.5 15C11.6603 15 12.7731 14.5391 13.5936 13.7186C14.4141 12.8981 14.875 11.7853 14.875 10.625C14.875 9.46468 14.4141 8.35188 13.5936 7.53141C12.7731 6.71094 11.6603 6.25 10.5 6.25C9.33968 6.25 8.22688 6.71094 7.40641 7.53141C6.58594 8.35188 6.125 9.46468 6.125 10.625C6.125 11.7853 6.58594 12.8981 7.40641 13.7186C8.22688 14.5391 9.33968 15 10.5 15Z" fill="#5E6366"/>
<path id="Vector_3" d="M4.25 8.125C4.25 8.29076 4.18415 8.44973 4.06694 8.56694C3.94973 8.68415 3.79076 8.75 3.625 8.75C3.45924 8.75 3.30027 8.68415 3.18306 8.56694C3.06585 8.44973 3 8.29076 3 8.125C3 7.95924 3.06585 7.80027 3.18306 7.68306C3.30027 7.56585 3.45924 7.5 3.625 7.5C3.79076 7.5 3.94973 7.56585 4.06694 7.68306C4.18415 7.80027 4.25 7.95924 4.25 8.125V8.125Z" fill="#5E6366"/>
</g>
<defs>
<clipPath id="clip0_161_1616">
<rect width="20" height="20" fill="white" transform="translate(0.5)"/>
</clipPath>
</defs>
</svg>
