<svg width="20" height="20" viewBox="0 0 20 20" fill="none" xmlns="http://www.w3.org/2000/svg">
<g id="location">
<path id="Vector" fill-rule="evenodd" clip-rule="evenodd" d="M17.6028 2.72768C17.6921 2.8171 17.7523 2.93151 17.7753 3.05582C17.7982 3.18012 17.783 3.30847 17.7315 3.42393L10.6603 19.3339C10.6109 19.4452 10.53 19.5396 10.4277 19.6056C10.3254 19.6716 10.206 19.7062 10.0843 19.7053C9.96254 19.7043 9.84372 19.6679 9.74241 19.6004C9.6411 19.5328 9.56173 19.4372 9.51402 19.3252L6.96277 13.3677L1.00402 10.8152C0.892429 10.7672 0.797242 10.6877 0.730104 10.5865C0.662965 10.4852 0.626786 10.3666 0.62599 10.2451C0.625194 10.1237 0.659817 10.0046 0.725624 9.90247C0.79143 9.80036 0.885568 9.71964 0.996524 9.67018L16.9065 2.59893C17.0218 2.54774 17.1499 2.53264 17.274 2.55562C17.398 2.5786 17.5122 2.63858 17.6015 2.72768H17.6028ZM2.81277 10.2302L7.68402 12.3177C7.83133 12.3812 7.94859 12.4989 8.01152 12.6464L10.099 17.5177L15.929 4.40018L2.81277 10.2302Z" fill="#5E6366"/>
</g>
</svg>
