<svg width="20" height="20" viewBox="0 0 20 20" fill="none" xmlns="http://www.w3.org/2000/svg">
<g id="dashboard">
<path id="Vector" d="M2.08334 5.41667C2.08334 3.57572 3.57572 2.08333 5.41667 2.08333C7.25762 2.08333 8.75 3.57572 8.75 5.41667C8.75 7.25761 7.25762 8.75 5.41667 8.75C3.57572 8.75 2.08334 7.25761 2.08334 5.41667Z" stroke="white" stroke-width="1.5"/>
<path id="Vector_2" d="M11.25 14.5833C11.25 12.7424 12.7424 11.25 14.5833 11.25C16.4243 11.25 17.9167 12.7424 17.9167 14.5833C17.9167 16.4243 16.4243 17.9167 14.5833 17.9167C12.7424 17.9167 11.25 16.4243 11.25 14.5833Z" stroke="white" stroke-width="1.5"/>
<g id="Rectangle 1880">
<path d="M17.9167 5.41667C17.9167 3.84532 17.9167 3.05964 17.4285 2.57149C16.9404 2.08333 16.1547 2.08333 14.5833 2.08333C13.012 2.08333 12.2263 2.08333 11.7382 2.57149C11.25 3.05964 11.25 3.84532 11.25 5.41667C11.25 6.98801 11.25 7.77369 11.7382 8.26184C12.2263 8.75 13.012 8.75 14.5833 8.75C16.1547 8.75 16.9404 8.75 17.4285 8.26184C17.9167 7.77369 17.9167 6.98801 17.9167 5.41667Z" stroke="white" stroke-width="1.5"/>
<path d="M8.75 14.5833C8.75 13.012 8.75 12.2263 8.26185 11.7382C7.77369 11.25 6.98802 11.25 5.41667 11.25C3.84532 11.25 3.05965 11.25 2.57149 11.7382C2.08334 12.2263 2.08334 13.012 2.08334 14.5833C2.08334 16.1547 2.08334 16.9404 2.57149 17.4285C3.05965 17.9167 3.84532 17.9167 5.41667 17.9167C6.98802 17.9167 7.77369 17.9167 8.26185 17.4285C8.75 16.9404 8.75 16.1547 8.75 14.5833Z" stroke="white" stroke-width="1.5"/>
</g>
</g>
</svg>
