<svg width="17" height="17" viewBox="0 0 17 17" fill="none" xmlns="http://www.w3.org/2000/svg">
<g id="pencil" clip-path="url(#clip0_221_129)">
<path id="Vector" d="M16.0017 2.43991C16.0951 2.53363 16.1476 2.66057 16.1476 2.7929C16.1476 2.92524 16.0951 3.05218 16.0017 3.1459L14.9587 4.1899L12.9587 2.18991L14.0017 1.1459C14.0955 1.05217 14.2226 0.999512 14.3552 0.999512C14.4878 0.999512 14.615 1.05217 14.7087 1.1459L16.0017 2.43891V2.43991ZM14.2517 4.8959L12.2517 2.8959L5.43872 9.7099C5.38368 9.76493 5.34225 9.83204 5.31772 9.9059L4.51272 12.3199C4.49812 12.3639 4.49604 12.4111 4.50673 12.4562C4.51741 12.5014 4.54044 12.5426 4.57322 12.5754C4.60601 12.6082 4.64727 12.6312 4.69239 12.6419C4.73751 12.6526 4.78471 12.6505 4.82872 12.6359L7.24272 11.8309C7.31648 11.8067 7.38359 11.7656 7.43872 11.7109L14.2517 4.8969V4.8959Z" fill="#5E6366"/>
<path id="Vector_2" fill-rule="evenodd" clip-rule="evenodd" d="M1.5 14C1.5 14.3978 1.65804 14.7794 1.93934 15.0607C2.22064 15.342 2.60218 15.5 3 15.5H14C14.3978 15.5 14.7794 15.342 15.0607 15.0607C15.342 14.7794 15.5 14.3978 15.5 14V8C15.5 7.86739 15.4473 7.74021 15.3536 7.64645C15.2598 7.55268 15.1326 7.5 15 7.5C14.8674 7.5 14.7402 7.55268 14.6464 7.64645C14.5527 7.74021 14.5 7.86739 14.5 8V14C14.5 14.1326 14.4473 14.2598 14.3536 14.3536C14.2598 14.4473 14.1326 14.5 14 14.5H3C2.86739 14.5 2.74021 14.4473 2.64645 14.3536C2.55268 14.2598 2.5 14.1326 2.5 14V3C2.5 2.86739 2.55268 2.74021 2.64645 2.64645C2.74021 2.55268 2.86739 2.5 3 2.5H9.5C9.63261 2.5 9.75979 2.44732 9.85355 2.35355C9.94732 2.25979 10 2.13261 10 2C10 1.86739 9.94732 1.74021 9.85355 1.64645C9.75979 1.55268 9.63261 1.5 9.5 1.5H3C2.60218 1.5 2.22064 1.65804 1.93934 1.93934C1.65804 2.22064 1.5 2.60218 1.5 3V14Z" fill="#5E6366"/>
</g>
<defs>
<clipPath id="clip0_221_129">
<rect width="16" height="16" fill="white" transform="translate(0.5 0.5)"/>
</clipPath>
</defs>
</svg>
