<svg width="28" height="31" viewBox="0 0 28 31" fill="none" xmlns="http://www.w3.org/2000/svg">
<g id="logo icon">
<path id="Vector" fill-rule="evenodd" clip-rule="evenodd" d="M14 0C12.6216 0 10.3145 0.507055 8.14273 1.06909C6.20566 1.57774 4.28116 2.1311 2.37084 2.72873C1.82544 2.89672 1.33984 3.21232 0.970237 3.63901C0.600636 4.0657 0.362147 4.58604 0.282376 5.13978C-0.910732 13.6864 1.85653 20.0195 5.21306 24.2103C6.64192 26.0087 8.33834 27.5874 10.2458 28.894C11.0183 29.4153 11.7345 29.8124 12.3426 30.0873C12.9048 30.3398 13.5044 30.5455 14 30.5455C14.4956 30.5455 15.0973 30.3398 15.6574 30.0873C16.2654 29.8124 16.9817 29.4153 17.7542 28.894C19.6624 27.5876 21.3595 26.0089 22.789 24.2103C26.1435 20.0195 28.9107 13.6864 27.7176 5.13978C27.6378 4.58604 27.3994 4.0657 27.0298 3.63901C26.6602 3.21232 26.1746 2.89672 25.6292 2.72873C23.7188 2.13109 21.7943 1.57772 19.8573 1.06909C17.6855 0.507055 15.3805 0 14 0ZM15.0411 11.2C15.0411 10.93 14.9314 10.671 14.7362 10.48C14.5409 10.2891 14.2761 10.1818 14 10.1818C13.7239 10.1818 13.4591 10.2891 13.2638 10.48C13.0686 10.671 12.9589 10.93 12.9589 11.2V14.2545H9.83557C9.55945 14.2545 9.29464 14.3618 9.0994 14.5528C8.90415 14.7437 8.79446 15.0027 8.79446 15.2727C8.79446 15.5428 8.90415 15.8017 9.0994 15.9927C9.29464 16.1836 9.55945 16.2909 9.83557 16.2909H12.9589V19.3455C12.9589 19.6155 13.0686 19.8745 13.2638 20.0654C13.4591 20.2564 13.7239 20.3636 14 20.3636C14.2761 20.3636 14.5409 20.2564 14.7362 20.0654C14.9314 19.8745 15.0411 19.6155 15.0411 19.3455V16.2909H18.1644C18.4405 16.2909 18.7054 16.1836 18.9006 15.9927C19.0958 15.8017 19.2055 15.5428 19.2055 15.2727C19.2055 15.0027 19.0958 14.7437 18.9006 14.5528C18.7054 14.3618 18.4405 14.2545 18.1644 14.2545H15.0411V11.2Z" fill="white"/>
</g>
</svg>
