<svg width="28" height="31" viewBox="0 0 28 31" fill="none" xmlns="http://www.w3.org/2000/svg">
<g id="logo icon">
<path id="Vector" fill-rule="evenodd" clip-rule="evenodd" d="M14 0C12.6216 0 10.3145 0.5146 8.14273 1.085C6.20566 1.60122 4.28116 2.16282 2.37084 2.76933C1.82544 2.93982 1.33984 3.26012 0.970237 3.69316C0.600636 4.1262 0.362147 4.65428 0.282376 5.21627C-0.910732 13.8901 1.85653 20.3174 5.21306 24.5706C6.64192 26.3957 8.33834 27.998 10.2458 29.3239C11.0183 29.853 11.7345 30.256 12.3426 30.535C12.9048 30.7913 13.5044 31 14 31C14.4956 31 15.0973 30.7913 15.6574 30.535C16.2654 30.256 16.9817 29.853 17.7542 29.3239C19.6624 27.9982 21.3595 26.3959 22.789 24.5706C26.1435 20.3174 28.9107 13.8901 27.7176 5.21627C27.6378 4.65428 27.3994 4.1262 27.0298 3.69316C26.6602 3.26012 26.1746 2.93982 25.6292 2.76933C23.7188 2.1628 21.7943 1.6012 19.8573 1.085C17.6855 0.5146 15.3805 0 14 0ZM15.0411 11.3667C15.0411 11.0926 14.9314 10.8298 14.7362 10.636C14.5409 10.4422 14.2761 10.3333 14 10.3333C13.7239 10.3333 13.4591 10.4422 13.2638 10.636C13.0686 10.8298 12.9589 11.0926 12.9589 11.3667V14.4667H9.83557C9.55945 14.4667 9.29464 14.5755 9.0994 14.7693C8.90415 14.9631 8.79446 15.2259 8.79446 15.5C8.79446 15.7741 8.90415 16.0369 9.0994 16.2307C9.29464 16.4245 9.55945 16.5333 9.83557 16.5333H12.9589V19.6333C12.9589 19.9074 13.0686 20.1702 13.2638 20.364C13.4591 20.5578 13.7239 20.6667 14 20.6667C14.2761 20.6667 14.5409 20.5578 14.7362 20.364C14.9314 20.1702 15.0411 19.9074 15.0411 19.6333V16.5333H18.1644C18.4405 16.5333 18.7054 16.4245 18.9006 16.2307C19.0958 16.0369 19.2055 15.7741 19.2055 15.5C19.2055 15.2259 19.0958 14.9631 18.9006 14.7693C18.7054 14.5755 18.4405 14.4667 18.1644 14.4667H15.0411V11.3667Z" fill="black"/>
</g>
</svg>
