<svg width="20" height="20" viewBox="0 0 20 20" fill="none" xmlns="http://www.w3.org/2000/svg">
<g id="Settings" clip-path="url(#clip0_1_1271)">
<path id="Vector" d="M10.2778 12.2222C10.6061 12.2222 10.9312 12.1576 11.2345 12.0319C11.5378 11.9063 11.8134 11.7221 12.0455 11.49C12.2777 11.2578 12.4618 10.9823 12.5875 10.6789C12.7131 10.3756 12.7778 10.0505 12.7778 9.72223C12.7778 9.39392 12.7131 9.06883 12.5875 8.76552C12.4618 8.46221 12.2777 8.18661 12.0455 7.95446C11.8134 7.72232 11.5378 7.53817 11.2345 7.41253C10.9312 7.28689 10.6061 7.22223 10.2778 7.22223C9.61474 7.22223 8.97885 7.48562 8.51001 7.95446C8.04117 8.4233 7.77778 9.05919 7.77778 9.72223C7.77778 10.3853 8.04117 11.0212 8.51001 11.49C8.97885 11.9588 9.61474 12.2222 10.2778 12.2222Z" stroke="white" stroke-width="1.5" stroke-miterlimit="10" stroke-linecap="round" stroke-linejoin="round"/>
<path id="Vector_2" d="M1.1112 10.7756V9.22448C1.1112 8.30717 1.86734 7.55664 2.79151 7.55664C4.40461 7.55664 5.05993 6.42251 4.25338 5.03821C4.14228 4.84785 4.07022 4.63756 4.04135 4.41944C4.01247 4.20132 4.02736 3.97969 4.08515 3.76731C4.14293 3.55493 4.24248 3.35599 4.37806 3.18196C4.51363 3.00792 4.68255 2.86223 4.8751 2.75327L6.40418 1.86932C7.10991 1.45236 8.01728 1.70253 8.43736 2.40302L8.53817 2.56981C9.34472 3.95411 10.6554 3.95411 11.4619 2.56981L11.5627 2.40302C11.9828 1.70253 12.8902 1.46903 13.5959 1.86932L15.125 2.75327C15.9315 3.22026 16.2172 4.23764 15.7467 5.03821C14.9402 6.42251 15.5955 7.55664 17.2086 7.55664C18.1328 7.55664 18.8889 8.30717 18.8889 9.22448V10.7756C18.8889 11.6929 18.1328 12.4434 17.2086 12.4434C15.5955 12.4434 14.9402 13.5775 15.7467 14.9618C15.8578 15.1522 15.9299 15.3625 15.9587 15.5806C15.9876 15.7987 15.9727 16.0204 15.9149 16.2327C15.8572 16.4451 15.7576 16.6441 15.622 16.8181C15.4865 16.9921 15.3175 17.1378 15.125 17.2468L13.5959 18.1307C12.8902 18.5477 11.9828 18.2975 11.5627 17.597L11.4619 17.4302C10.6554 16.0459 9.34472 16.0459 8.53817 17.4302L8.43736 17.597C8.01728 18.2975 7.10991 18.531 6.40418 18.1307L4.8751 17.2468C4.06855 16.7798 3.78289 15.7624 4.25338 14.9618C5.05993 13.5775 4.40461 12.4434 2.79151 12.4434C2.57023 12.4456 2.35072 12.404 2.14584 12.321C1.94096 12.238 1.75483 12.1152 1.59834 11.9599C1.44186 11.8046 1.31818 11.6198 1.23453 11.4164C1.15088 11.2131 1.10895 10.9952 1.1112 10.7756Z" stroke="white" stroke-width="1.5" stroke-miterlimit="10" stroke-linecap="round" stroke-linejoin="round"/>
</g>
<defs>
<clipPath id="clip0_1_1271">
<rect width="20" height="20" fill="white"/>
</clipPath>
</defs>
</svg>
