<svg width="32" height="32" viewBox="0 0 32 32" fill="none" xmlns="http://www.w3.org/2000/svg">
<g id="exclamation-triangle">
<path id="Vector" fill-rule="evenodd" clip-rule="evenodd" d="M14.9416 4.0319C14.8985 4.05933 14.8634 4.09875 14.8399 4.1459L1.93261 27.4799C1.90046 27.5347 1.8831 27.5978 1.88244 27.6623C1.88177 27.7269 1.89783 27.7904 1.92885 27.8459C1.95897 27.9059 1.9985 27.9459 2.0305 27.9659C2.05873 27.9859 2.0945 27.9999 2.15473 27.9999H27.9674C28.0111 28.0016 28.0542 27.9898 28.0917 27.9659C28.1352 27.9358 28.1708 27.8946 28.1952 27.8459C28.2259 27.7902 28.2417 27.7266 28.2407 27.6621C28.2397 27.5975 28.222 27.5345 28.1896 27.4799L15.2841 4.1459C15.2607 4.09875 15.2255 4.05933 15.1825 4.0319C15.1456 4.01041 15.1041 3.99939 15.062 3.9999C15.0199 3.99939 14.9785 4.01041 14.9416 4.0319V4.0319ZM16.9067 3.1319C16.7204 2.78703 16.4517 2.5005 16.1278 2.30125C15.8039 2.10199 15.4363 1.99707 15.062 1.99707C14.6878 1.99707 14.3201 2.10199 13.9962 2.30125C13.6723 2.5005 13.4037 2.78703 13.2173 3.1319L0.310027 26.4659C-0.550208 28.0219 0.481321 29.9999 2.15473 29.9999H27.9674C29.6408 29.9999 30.6743 28.0199 29.8121 26.4659L16.9067 3.1319Z" fill="black"/>
<path id="Vector_2" d="M13.1802 24.0002C13.1802 23.7376 13.2289 23.4775 13.3235 23.2349C13.4181 22.9922 13.5567 22.7717 13.7315 22.586C13.9063 22.4003 14.1138 22.253 14.3422 22.1525C14.5706 22.052 14.8153 22.0002 15.0625 22.0002C15.3097 22.0002 15.5545 22.052 15.7829 22.1525C16.0113 22.253 16.2188 22.4003 16.3936 22.586C16.5683 22.7717 16.707 22.9922 16.8016 23.2349C16.8962 23.4775 16.9449 23.7376 16.9449 24.0002C16.9449 24.5307 16.7466 25.0394 16.3936 25.4145C16.0405 25.7895 15.5618 26.0002 15.0625 26.0002C14.5633 26.0002 14.0845 25.7895 13.7315 25.4145C13.3785 25.0394 13.1802 24.5307 13.1802 24.0002ZM13.3646 11.9902C13.3396 11.7379 13.3647 11.4828 13.4384 11.2415C13.5122 11.0002 13.6328 10.778 13.7925 10.5894C13.9523 10.4008 14.1476 10.25 14.3657 10.1468C14.5838 10.0436 14.82 9.99023 15.0588 9.99023C15.2976 9.99023 15.5337 10.0436 15.7518 10.1468C15.97 10.25 16.1652 10.4008 16.325 10.5894C16.4847 10.778 16.6054 11.0002 16.6791 11.2415C16.7528 11.4828 16.7779 11.7379 16.7529 11.9902L16.0941 19.0042C16.0719 19.2798 15.9533 19.5365 15.7616 19.7235C15.5698 19.9106 15.319 20.0143 15.0588 20.0143C14.7985 20.0143 14.5477 19.9106 14.356 19.7235C14.1643 19.5365 14.0456 19.2798 14.0235 19.0042L13.3646 11.9902Z" fill="black"/>
</g>
</svg>
